<svg width="124" height="15" viewBox="0 0 124 15" fill="none" xmlns="http://www.w3.org/2000/svg">
<g clip-path="url(#clip0_249_24809)">
<path d="M32.57 0.00774956H29.718V14.0979C29.718 14.5125 30.0539 14.8484 30.4685 14.8484H39.3868V12.2398H32.57V0.00774956Z" fill="white"/>
<path d="M14.0637 0.0264797H8.84792V2.61369H12.1953V5.97913H14.8038V0.766605C14.8038 0.357792 14.4725 0.0264797 14.0637 0.0264797Z" fill="white"/>
<path d="M12.1959 12.2398H8.84856V14.8303H14.0643C14.4731 14.8303 14.8044 14.499 14.8044 14.0901V8.8744H12.1959V12.2392V12.2398Z" fill="white"/>
<path d="M2.60852 8.87504H0V14.0908C0 14.4996 0.331313 14.8309 0.740125 14.8309H5.95265V12.2405H2.60852V8.87569V8.87504Z" fill="white"/>
<path d="M7.44358 5.41153L5.42691 7.4282L7.44358 9.44487L9.46025 7.4282L7.44358 5.41153Z" fill="white"/>
<path d="M2.60852 2.61369H5.95265V0.0264797H0.740125C0.331313 0.0264797 0 0.357792 0 0.766605V5.97913H2.60852V2.61369Z" fill="white"/>
<path d="M79.9109 0.758208V14.0979C79.9109 14.5125 80.2467 14.8484 80.6614 14.8484H88.4553V12.2398H82.6531V2.66342H88.4553V0.00774956H80.6614C80.2467 0.00774956 79.9109 0.343583 79.9109 0.758208Z" fill="white"/>
<path d="M88.4553 6.00238H85.6033V8.85438H88.4553V6.00238Z" fill="white"/>
<path d="M74.2347 0.00774956H71.0365L66.5337 6.22131L65.9318 6.22454V0.00774956H63.0785V14.8484H65.9318V8.5786L66.5622 8.58119L71.1024 14.8451H74.2992L68.9879 7.38123L74.2347 0.00774956Z" fill="white"/>
<path d="M102.939 -7.57864e-07V0.00129091H96.6432C96.2285 0.00129091 95.8927 0.337124 95.8927 0.751749V14.8419H98.744V8.59346H99.5061L102.891 14.84H106.037L102.573 8.59346H102.939C104.825 8.59346 106.355 7.08802 106.355 5.20154V3.41517C106.355 1.52869 104.825 -0.000646591 102.939 -0.000646591L102.939 -7.57864e-07ZM103.795 4.87023L103.794 5.17054C103.779 5.83833 103.297 6.25877 102.498 6.25877H98.746V2.66342H102.498C103.309 2.66342 103.795 3.09742 103.795 3.78458V4.87023Z" fill="white"/>
<path d="M52.8001 0.00774956H49.0724C48.7294 0.00774956 48.4304 0.24025 48.3451 0.572208L44.6923 14.8484H47.4765L48.3277 11.2117H53.4156L54.2668 14.8484H57.1724L53.5267 0.572208C53.4421 0.239604 53.1424 0.00774956 52.7995 0.00774956H52.8001ZM48.8702 8.89442L50.3285 2.66342H51.4154L52.8737 8.89442H48.8702Z" fill="white"/>
<path d="M120.354 0.572208C120.27 0.239604 119.97 0.00774956 119.627 0.00774956H115.9C115.557 0.00774956 115.258 0.24025 115.173 0.572208L111.52 14.8484H114.304L115.155 11.2117H120.243L121.094 14.8484H124L120.354 0.572208ZM115.697 8.89442L117.155 2.66342H118.242L119.701 8.89442H115.697Z" fill="white"/>
</g>
<defs>
<clipPath id="clip0_249_24809">
<rect width="124" height="14.8484" fill="white"/>
</clipPath>
</defs>
</svg>
